<?xml version="1.0" encoding="UTF-8" standalone="no"?>
<!-- Created with Inkscape (http://www.inkscape.org/) -->

<svg
   xmlns:dc="http://purl.org/dc/elements/1.1/"
   xmlns:cc="http://creativecommons.org/ns#"
   xmlns:rdf="http://www.w3.org/1999/02/22-rdf-syntax-ns#"
   xmlns:svg="http://www.w3.org/2000/svg"
   xmlns="http://www.w3.org/2000/svg"
   xmlns:sodipodi="http://sodipodi.sourceforge.net/DTD/sodipodi-0.dtd"
   xmlns:inkscape="http://www.inkscape.org/namespaces/inkscape"
   width="300"
   height="270"
   viewBox="0 0 300 270"
   id="svg2"
   version="1.1"
   inkscape:version="0.91 r13725"
   sodipodi:docname="n0.50.svg">
  <defs
     id="defs4" />
  <sodipodi:namedview
     id="base"
     pagecolor="#ffffff"
     bordercolor="#666666"
     borderopacity="1.0"
     inkscape:pageopacity="0.0"
     inkscape:pageshadow="2"
     inkscape:zoom="2.0000001"
     inkscape:cx="91.641094"
     inkscape:cy="117.08593"
     inkscape:document-units="px"
     inkscape:current-layer="layer1"
     showgrid="false"
     units="px"
     inkscape:window-width="1152"
     inkscape:window-height="840"
     inkscape:window-x="0"
     inkscape:window-y="1024"
     inkscape:window-maximized="1" />
  <metadata
     id="metadata7">
    <rdf:RDF>
      <cc:Work
         rdf:about="">
        <dc:format>image/svg+xml</dc:format>
        <dc:type
           rdf:resource="http://purl.org/dc/dcmitype/StillImage" />
        <dc:title />
      </cc:Work>
    </rdf:RDF>
  </metadata>
  <g
     inkscape:label="Layer 1"
     inkscape:groupmode="layer"
     id="layer1"
     transform="translate(0,-782.36216)">
    <path
       style="fill:#ff0000;fill-rule:evenodd;stroke:#000000;stroke-width:0.78477341px;stroke-linecap:butt;stroke-linejoin:miter;stroke-opacity:0"
       d="M 166.02734 210.42773 A 26.379039 43.108415 66.051566 0 0 134.23047 218.50781 A 26.379039 43.108415 66.051566 0 0 112.16406 260.61719 A 26.379039 43.108415 66.051566 0 0 165.51953 261.86719 A 26.379039 43.108415 66.051566 0 0 187.58594 219.75781 A 26.379039 43.108415 66.051566 0 0 166.02734 210.42773 z M 146.41992 219.22656 A 21.16217 17.626637 60.885558 0 1 165.30664 231.01758 A 21.16217 17.626637 60.885558 0 1 160.20312 258.08203 A 21.16217 17.626637 60.885558 0 1 134.50781 248.17188 A 21.16217 17.626637 60.885558 0 1 139.60938 221.10547 A 21.16217 17.626637 60.885558 0 1 146.41992 219.22656 z "
       transform="translate(0,782.36216)"
       id="path3352" />
    <rect
       style="fill:#ff0000;fill-opacity:1;fill-rule:evenodd;stroke:#000000;stroke-width:1.06904769px;stroke-linecap:butt;stroke-linejoin:miter;stroke-opacity:0"
       id="rect3360"
       width="7.0738096"
       height="230.80363"
       x="183.55421"
       y="-1013.3615"
       transform="scale(1,-1)" />
  </g>
</svg>
