<?xml version="1.0" encoding="UTF-8" standalone="no"?>
<!-- Created with Inkscape (http://www.inkscape.org/) -->

<svg
   xmlns:dc="http://purl.org/dc/elements/1.1/"
   xmlns:cc="http://creativecommons.org/ns#"
   xmlns:rdf="http://www.w3.org/1999/02/22-rdf-syntax-ns#"
   xmlns:svg="http://www.w3.org/2000/svg"
   xmlns="http://www.w3.org/2000/svg"
   xmlns:sodipodi="http://sodipodi.sourceforge.net/DTD/sodipodi-0.dtd"
   xmlns:inkscape="http://www.inkscape.org/namespaces/inkscape"
   width="300"
   height="270"
   viewBox="0 0 300 270"
   id="svg2"
   version="1.1"
   inkscape:version="0.91 r13725"
   sodipodi:docname="n2.00.svg">
  <defs
     id="defs4" />
  <sodipodi:namedview
     id="base"
     pagecolor="#ffffff"
     bordercolor="#666666"
     borderopacity="1.0"
     inkscape:pageopacity="0.0"
     inkscape:pageshadow="2"
     inkscape:zoom="2.8284273"
     inkscape:cx="192.18497"
     inkscape:cy="72.026872"
     inkscape:document-units="px"
     inkscape:current-layer="layer1"
     showgrid="false"
     units="px"
     inkscape:window-width="1152"
     inkscape:window-height="840"
     inkscape:window-x="0"
     inkscape:window-y="1024"
     inkscape:window-maximized="1" />
  <metadata
     id="metadata7">
    <rdf:RDF>
      <cc:Work
         rdf:about="">
        <dc:format>image/svg+xml</dc:format>
        <dc:type
           rdf:resource="http://purl.org/dc/dcmitype/StillImage" />
        <dc:title></dc:title>
      </cc:Work>
    </rdf:RDF>
  </metadata>
  <g
     inkscape:label="Layer 1"
     inkscape:groupmode="layer"
     id="layer1"
     transform="translate(0,-782.36216)">
    <path
       style="opacity:1;fill:#ff0000;fill-opacity:1;fill-rule:nonzero;stroke:#000000;stroke-width:0;stroke-miterlimit:4;stroke-dasharray:none;stroke-opacity:0"
       d="M 150 210 A 49.999996 29.999994 0 0 0 100 240 A 49.999996 29.999994 0 0 0 150 270 A 49.999996 29.999994 0 0 0 200 240 A 49.999996 29.999994 0 0 0 150 210 z M 142.66016 213.5 A 30.468501 24.306377 37.443194 0 1 176.43555 240.25 A 30.468501 24.306377 37.443194 0 1 154.83984 267 A 30.468501 24.306377 37.443194 0 1 121.06445 240.25 A 30.468501 24.306377 37.443194 0 1 142.66016 213.5 z "
       transform="translate(0,782.36216)"
       id="path4137" />
    <rect
       style="opacity:1;fill:#ff0000;fill-opacity:1;fill-rule:nonzero;stroke:#ff0000;stroke-width:0.42806843;stroke-miterlimit:4;stroke-dasharray:none;stroke-opacity:1"
       id="rect4178"
       width="1.4003589"
       height="62.090221"
       x="-97.573807"
       y="989.85083"
       transform="scale(-1,1)" />
    <rect
       transform="scale(-1,1)"
       y="989.85083"
       x="-93.573807"
       height="62.090221"
       width="1.4003589"
       id="rect4415"
       style="opacity:1;fill:#ff0000;fill-opacity:1;fill-rule:nonzero;stroke:#ff0000;stroke-width:0.42806843;stroke-miterlimit:4;stroke-dasharray:none;stroke-opacity:1" />
    <rect
       transform="scale(-1,1)"
       y="989.85083"
       x="-207.57381"
       height="62.090221"
       width="1.4003589"
       id="rect4417"
       style="opacity:1;fill:#ff0000;fill-opacity:1;fill-rule:nonzero;stroke:#ff0000;stroke-width:0.42806843;stroke-miterlimit:4;stroke-dasharray:none;stroke-opacity:1" />
    <rect
       style="opacity:1;fill:#ff0000;fill-opacity:1;fill-rule:nonzero;stroke:#ff0000;stroke-width:0.42806843;stroke-miterlimit:4;stroke-dasharray:none;stroke-opacity:1"
       id="rect4419"
       width="1.4003589"
       height="62.090221"
       x="-203.57381"
       y="989.85083"
       transform="scale(-1,1)" />
  </g>
</svg>
