<?xml version="1.0" encoding="UTF-8" standalone="no"?>
<!-- Created with Inkscape (http://www.inkscape.org/) -->

<svg
   xmlns:dc="http://purl.org/dc/elements/1.1/"
   xmlns:cc="http://creativecommons.org/ns#"
   xmlns:rdf="http://www.w3.org/1999/02/22-rdf-syntax-ns#"
   xmlns:svg="http://www.w3.org/2000/svg"
   xmlns="http://www.w3.org/2000/svg"
   xmlns:xlink="http://www.w3.org/1999/xlink"
   xmlns:sodipodi="http://sodipodi.sourceforge.net/DTD/sodipodi-0.dtd"
   xmlns:inkscape="http://www.inkscape.org/namespaces/inkscape"
   version="1.1"
   width="600"
   height="600"
   id="svg3033"
   inkscape:version="0.48.4 r9939"
   sodipodi:docname="bass_key.svg">
  <sodipodi:namedview
     pagecolor="#ffffff"
     bordercolor="#666666"
     borderopacity="1"
     objecttolerance="10"
     gridtolerance="10"
     guidetolerance="10"
     inkscape:pageopacity="0"
     inkscape:pageshadow="2"
     inkscape:window-width="640"
     inkscape:window-height="480"
     id="namedview14"
     showgrid="false"
     inkscape:zoom="0.35355339"
     inkscape:cx="286.59989"
     inkscape:cy="157.97514"
     inkscape:window-x="31"
     inkscape:window-y="519"
     inkscape:window-maximized="0"
     inkscape:current-layer="svg3033" />
  <title
     id="title3077">Bass Clef</title>
  <defs
     id="defs3035">
    <linearGradient
       x1="598.60864"
       y1="490.82504"
       x2="881.5011"
       y2="490.82504"
       id="linearGradient3776"
       xlink:href="#linearGradient3013-7"
       gradientUnits="userSpaceOnUse" />
    <linearGradient
       id="linearGradient3013-7">
      <stop
         id="stop3015-9"
         style="stop-color:#000000;stop-opacity:0.8263889"
         offset="0" />
      <stop
         id="stop3017-0"
         style="stop-color:#000000;stop-opacity:1"
         offset="1" />
    </linearGradient>
    <linearGradient
       x1="598.60864"
       y1="490.82504"
       x2="881.5011"
       y2="490.82504"
       id="linearGradient3793"
       xlink:href="#linearGradient3013-7"
       gradientUnits="userSpaceOnUse"
       gradientTransform="translate(-368.00764,35.356037)" />
    <linearGradient
       x1="-543.25403"
       y1="770.93732"
       x2="-190.87596"
       y2="231.08823"
       id="linearGradient3770"
       xlink:href="#linearGradient3013-7"
       gradientUnits="userSpaceOnUse"
       gradientTransform="translate(729.67433,-22.021336)" />
  </defs>
  <metadata
     id="metadata3038">
    <rdf:RDF>
      <cc:Work
         rdf:about="">
        <dc:format>image/svg+xml</dc:format>
        <dc:type
           rdf:resource="http://purl.org/dc/dcmitype/StillImage" />
        <dc:title>Bass Clef</dc:title>
        <dc:creator>
          <cc:Agent>
            <dc:title>Jaschon</dc:title>
          </cc:Agent>
        </dc:creator>
        <cc:license
           rdf:resource="http://creativecommons.org/licenses/publicdomain/" />
      </cc:Work>
      <cc:License
         rdf:about="http://creativecommons.org/licenses/publicdomain/">
        <cc:permits
           rdf:resource="http://creativecommons.org/ns#Reproduction" />
        <cc:permits
           rdf:resource="http://creativecommons.org/ns#Distribution" />
        <cc:permits
           rdf:resource="http://creativecommons.org/ns#DerivativeWorks" />
      </cc:License>
    </rdf:RDF>
  </metadata>
  <g
     id="layer1"
     transform="matrix(0.80188361,0,0,0.80188361,92.393036,-46.644598)">
    <path
       d="m 190.85272,451.25133 c 11.66109,14.71933 32.32286,24.49078 55.84396,24.49078 36.40052,0 65.88892,-23.37191 65.88892,-52.21386 0,-28.84194 -29.4884,-52.21385 -65.88892,-52.21385 -20.31367,4.15224 -28.5933,9.00067 -33.14336,-2.90906 17.97648,-54.32728 46.91788,-66.70942 96.54591,-66.70942 65.91378,0 96.96859,59.89675 96.96859,142.96652 -18.22512,190.63031 -205.94638,286.75353 -246.57373,316.1922 5.6938,13.10319 5.39543,12.63078 5.39543,12.00919 189.78494,-86.20259 330.68777,-204.42969 330.68777,-320.74227 0,-92.41853 -58.57898,-175.58775 -187.72125,-172.80301 -77.57488,0 -170.31663,86.20259 -118.00332,171.93278 z M 518.95466,361.3689 c 0,17.85217 14.4707,32.32286 32.32286,32.32286 17.85217,0 32.32287,-14.47069 32.32287,-32.32286 0,-17.85217 -14.4707,-32.32286 -32.32287,-32.32286 -17.85216,0 -32.32286,14.47069 -32.32286,32.32286 z m 0,136.75058 c 0,17.85217 14.4707,32.32287 32.32286,32.32287 17.85217,0 32.32287,-14.4707 32.32287,-32.32287 0,-17.85217 -14.4707,-32.32286 -32.32287,-32.32286 -17.85216,0 -32.32286,14.47069 -32.32286,32.32286 z"
       id="path3"
       style="fill:url(#linearGradient3770);fill-opacity:1;fill-rule:evenodd;stroke:#000000;stroke-opacity:1"
       inkscape:connector-curvature="0" />
  </g>
</svg>
