<?xml version="1.0" encoding="utf-8"?>
<!-- Generator: Adobe Illustrator 27.0.0, SVG Export Plug-In . SVG Version: 6.00 Build 0)  -->
<svg version="1.1" xmlns="http://www.w3.org/2000/svg" xmlns:xlink="http://www.w3.org/1999/xlink" x="0px" y="0px"
	 viewBox="0 0 1648.58 822.05" style="enable-background:new 0 0 1648.58 822.05;" xml:space="preserve">
<style type="text/css">
	.st0{fill-rule:evenodd;clip-rule:evenodd;fill:#191614;}
	.st1{fill-rule:evenodd;clip-rule:evenodd;fill:#F4F3EA;}
	.st2{fill-rule:evenodd;clip-rule:evenodd;fill:#F7E06C;}
	.st3{fill-rule:evenodd;clip-rule:evenodd;fill:#C29C34;}
	.st4{fill-rule:evenodd;clip-rule:evenodd;fill:#423622;}
	.st5{fill-rule:evenodd;clip-rule:evenodd;fill:#FDFDFE;}
	.st6{fill:#423622;}
	.st7{fill:#C29C34;}
	.st8{fill-rule:evenodd;clip-rule:evenodd;fill:#FCF5EB;}
	.st9{fill:#FCF5EB;}
	.st10{fill-rule:evenodd;clip-rule:evenodd;fill:#FFFFFF;}
	.st11{fill:#ADA400;}
	.st12{fill-rule:evenodd;clip-rule:evenodd;}
	.st13{fill:#FFFFFF;}
	.st14{fill-rule:evenodd;clip-rule:evenodd;fill:#FFFF00;}
	.st15{fill-rule:evenodd;clip-rule:evenodd;fill:#D8D4FF;}
	.st16{fill-rule:evenodd;clip-rule:evenodd;fill:url(#SVGID_1_);}
	.st17{fill:#191614;}
	.st18{fill-rule:evenodd;clip-rule:evenodd;fill:url(#SVGID_00000168097917932687752340000002198610870992709024_);}
	.st19{fill-rule:evenodd;clip-rule:evenodd;fill:url(#SVGID_00000042697778646043885530000011985314647756626101_);}
	.st20{fill:#6D6D6D;}
	.st21{fill-rule:evenodd;clip-rule:evenodd;fill:#FDFDFE;stroke:#000000;stroke-miterlimit:10;}
	.st22{fill-rule:evenodd;clip-rule:evenodd;fill:url(#SVGID_00000073713480642868490920000004901410554823189434_);}
	.st23{fill-rule:evenodd;clip-rule:evenodd;fill:#ADA400;}
</style>
<g id="Layer_3">
	<rect class="st0" width="1648.58" height="822.05"/>
	<path class="st10" d="M447.34,749.67c-20.61-5.05-2.58-57.83-14.14-77.35c-11.8-37.79-41.18-78.04-83.54-80.9
		c-8.87-0.65-14.88,8.5-13.83,16.79c-4.06,34.43-52.16-26.59-51.34-40.49c-10.6,4.43-53.08-2.01-39.38-19.91
		c19.83-10.2,30.09-34.36,33.48-55.47c-12.42,2.84-35.51-6.36-25.96-22.22c14.93-5.64,24.53-44.51,24.41-48.36
		c6.18-63.53-21.11-106.64-43.24-166.65c-22.57-98.17-7.44-142.88,30.89-137.3c14.82,2.16,33.11,11.83,54.03,28.84
		c8.46,6.88,28.85,20.15,57.86,63.06c80.74-51.66,75.31,25.24,105.57-66.51c54.33-121.17,101.06,54.65,89.61,103.06
		c6.08,12.18,54.76,3.71,65.48,7.97c34.29,2.08,54.03,45.39,57.71,75.04c1.01,52.94-36.38,36.83-23.92,73.25
		c4.46,26.45-77.74,38.17-59.66,56.84c111.08,110-9.42,203.04-115,251.37c-11.07,6.81-23.79,15.17-32.09,24.61
		C458.52,740.78,457.81,750.72,447.34,749.67z"/>
	<linearGradient id="SVGID_1_" gradientUnits="userSpaceOnUse" x1="235.4783" y1="424.7528" x2="685.3549" y2="424.7528">
		<stop  offset="0" style="stop-color:#FFF59B"/>
		<stop  offset="1" style="stop-color:#FFE62D"/>
	</linearGradient>
	<path class="st16" d="M492.59,701.7c-0.75,0.45-1.49,0.89-2.22,1.34c-6.58,4.09-12.8,8.26-18.35,12.49
		c-5.68,4.41-10.25,8.64-13.86,12.7c-1.84,2.07-3.44,4.09-4.81,6.08c-3.66,5.29-2.96,8.19-4.28,0.34c-2.12-12.62-1.48-24,0.99-34.36
		c-4.49-55.98-44.2-114.75-96.81-119.29c-10.06-0.87-18.3,3.97-22.68,11.59c-7.8,13.56,2.8,21.67-12.27,6.94
		c-11.45-11.2-27.04-27.55-22.3-45.34c-9.94,2.73-17.81,5.55-26.89,4.38c-18.92-2.43-12.63-4.26-5.71-10.9
		c16.31-15.67,30.15-49.04,25.78-67.39c-8.11,2.11-17.32,2.47-22.73,0.67c-10.23-3.39,1.09-8.7,5.7-14.46
		c24.25-30.29,18.29-90.05,9.53-120.46c-6.33-21.98-16.56-42.72-25.8-64.38c-3.81-8.95-7.62-18.67-11.21-29.59
		c-19.64-74.18-2.58-125.81,3.21-125.81c29.06,0,65.98,22.46,91.73,51.12c12.69,14.12,23.13,36.32,31.01,53.73
		c45.69-28.79,67.53-22.22,98.55-15.96c5.65-27.31,22.49-64.87,29.67-77.71c3.58-6.4,6.7-11.73,11.45-17.37
		c6.22-7.38,11.3-10.98,15.26-9.8c3.25,0.97,13.46,14.07,19.67,27.91c23.05,51.33,19.7,83.95,15.94,121.75l0.11,0.01l0.32,0.04
		l0.11,0.01l0.11,0.01l0.11,0.01l0.32,0.03l0.11,0.01l0.11,0.01l0.11,0.01l0.11,0.01l0.11,0.01l0.11,0.01l0.11,0.01
		c19.02,1.79,37.7,1.75,57.12,4.19c15.64,1.97,39.03,1.69,45.16,19.8l0.06,0.17l0.04,0.13c13.05,11.7,30.41,48.81,11.86,76
		c-7.05,10.33-15.66,14.77-25.79,21.38l-0.01,0.01l-0.19,0.12l-0.01,0.01l-0.19,0.12l0,0l-0.04,0.03
		c7.01,7.28,13.33,16.69-0.64,27.16c-16.36,12.26-52.68,19.22-60.02,42.12c-1.14,3.56-1.95,7.35-0.23,10.27
		c17.84,30.25,57.72,55.92,54.89,97.28c-1.83,26.69-19.09,54.07-38.33,71.48c-13.57,12.28-28.81,23-44.54,32.61
		C539.8,676.66,515.41,688.13,492.59,701.7z"/>
	<path class="st0" d="M664.14,284.78c-2.19-10.99-9.92-19.39-27.88-20.69c0.14-0.06,0.29-0.13,0.43-0.19
		c-17.67-0.89-52.31-2.24-69.72-2.92c-15.14-0.6-27.48-4.63-35.26-10.85c-0.07-0.06,6.76-15.04-1.76-18.62
		c3.24-5.36,13.6-14.63,3.48-25.19c3.01-8.45,4.44-32.42-7.21-41.92c0.37,24.93-19.44,23.62-25.74,38.94
		c11.31-3.14,16.76-3.92,20.24,1.77c-2.09,1.39-14.78,6.78-12.54,7.94c12.54-0.16,14.62,7.34,12.54,7.14
		c-9.84-0.91-8.82,2.94-17.03,2.74c-2.98-0.07,10.27,5.4,5.85,15.88c-0.61,1.43-9.31-3.75-16.78-8.87
		c-12.86-8.81,16.55-85.73,29.49-88.49c21.15,7.01,35.92,66.31,39.07,109.91c3.85-37.93,2.08-69.35-17.37-112.68
		c-6.22-13.84-16.42-26.94-19.67-27.91c-22.43-6.68-50.16,77.53-53.23,93c-32.82-7.46-65.46-7.57-102.89,25.01
		c-23.28-60.28-76.45-102.01-121.56-102.01c-5.79,0-22.85,51.63-3.21,125.81c16.86,51.34,34.33,69.39,40.8,111.81
		c1.68,11,2.77,23.53,2.77,38.81c20.2-13.45,40.44-40.29,43.94-52.69c-6.56,5.52-10.34,6.63-14.33,4.4
		c22.68-22.32,28.81-51.7,29.95-68.3c-7.13,10.89-16.19-0.21,0-21.37c-7.42-8.03-24.46-0.14-31.88-8.17
		c5.56-3.98,7.92-8.06,22.46-12.36c-8.27-2.37-22.32-4.33-30.59-6.7c7.7-6.29,12.84-16.12,36.37-6.48
		c-8.84-10.06-19.18-20.12-38.73-25.15c-23.03-8.31-24.03-11.59-31.02-21.58c2.3,16.74,5.17,33.29,18.4,46.09
		c-4.47,12.36-0.67,28.28,15.4,34.36c-1.65,6.31-14.24,15.52,10.91,29.12c-36.4,6.3-53.24-67.04-55.59-92.97
		c-1.27-14.06-0.5-26.8,4.62-32.3c18.27-19.62,87.28,35.41,101.12,59.83c-3.19,2.8-6.02,5.91-8.42,9.34
		c-3.38,4.84-6.62,11.29-8.46,19.87c7.83-7.5,33.64-28.51,62.44-33.72c1.05-0.19,2.09-0.36,3.12-0.52
		c22.22-3.32,44.46,2.65,63.57,14.47c21.59,13.36,34.84,27.94,53.73,34.34c19.91,6.74,42.16,6.54,62.05,3.21
		c-3.69,4.91-5.62,11.3-6.4,19.17c-0.41,4.14,3.96,7.05,7.63,5.08c7.63-4.1,17.24-8.45,21.72-6.94
		c20.34,6.87,16.15,28.61,6.88,40.31c-19.79,24.99-101.25,80.93-148.28,73.95c10.85,11.89,24.2,15.03,36.69,14.21
		c45.48-4.91,92.75-48.57,111.32-48.2c6.02,0.12,14.03,2.11,19.37,5.1c0.38,0.22,0.88,0.6,1.41,1.05
		c2.87,10.93,14.92,13.52-23.01,31.98c-4.09,1.99-46.07,13.64-52.53,34.65c-2.05,7.67,0.26,16.3,5.82,22.72
		c30.49,35.23,34.78,42.54,39.44,52.38c15.34,32.35,10.81,59.63-4.09,82.99c-16.41,25.74-40.25,42.46-66.64,57.26
		c-40.21,22.55-89.7,51.85-96.57,78.67c11.83-28.27,81.73-58.2,112.09-76.76c15.72-9.61,30.96-20.33,44.54-32.61
		c19.23-17.4,36.59-44.79,38.33-71.48c3.42-52.65-13.63-62.04-39.99-93.73c-11.99-14.42-7.27-18.93-0.78-24.29
		c6.5-5.36,41.15-20.85,52.11-29.46c12.45-9.77,3.11-21.07-4.71-28.84c5.28-5.37,3.68-17.8-3.81-25.22
		c-2.66-2.82-4.19-5.57-3.51-10.68c1.16-8.69,2.02-10.49,4.33-20.24c2.89-9.94,4.09-19.2,5.16-26.17
		c15.36,9.59,32.41,30.27,10.66,72.96C701.87,346.2,680.97,297.63,664.14,284.78z"/>
	<path class="st0" d="M504.83,519.88c9.91,25.24-31.73,40.14-39.37,40.22c0,0,18.84-16.28,8.34-38.5
		c-18.63-28.7-46.74-38.93-68.67-60.86c-22.57-22.57-40.59-50.59-32.08-92.12c11.62-56.71,68.73-33.04,38.98-8.8
		c53.32,0,66.43-42.83,66.38-42.1c-0.35,4.94,0.6,17.2,8.66,21.57c-1.6-8.97,11.64-20.86,17.67-27.48c4.44-4.87,7.3-9.35,6.18-16.76
		c-0.32-2.1-1.04-4.27-2.27-6.53c-2.89-4.87-7.98-9.25-15.87-11.82c-2.58-3.51-27.07-34.79-61.26-34.79
		c-23.22,0-40.16,8.15-52.91,20.73c-14.08,13.89-16.24,27.29-24.02,52.54c-12.53,40.71-36.68,79.23-67.37,107.62
		c-0.84,16.26-8.64,41.42-26.73,53.91c0,6.42,14.99,7.28,27.4,4.06c5.1,21.4-14.57,63.21-34.03,73.58
		c16.11,8.56,26.24,4.34,40.85,0.34c-6.27,23.52,22.98,44.53,31.26,54.43c-1.5-15.85,9.92-29.01,25.99-27.62
		c52.64,4.54,92.36,63.37,96.82,119.38C490.83,640.2,606.84,597.48,504.83,519.88z M449.64,275.94c6.48-1.81,24,5.6,12.5,17.83
		c-6.28,6.68-12.98,8.6-17.26,9.04c-9.27,0.95-23.24-2.77-32.07-8.68C427.34,285.7,437.52,279.36,449.64,275.94z"/>
	<g>
		<path class="st11" d="M792.98,501.15h22.46c15.25,0,22.74,8.46,22.74,23.99v9.57c0,15.53-7.49,23.99-22.74,23.99h-7.21v39.52
			h-15.25V501.15z M815.45,544.83c4.85,0,7.49-2.22,7.49-9.15v-11.51c0-6.93-2.63-9.15-7.49-9.15h-7.21v29.81H815.45z"/>
		<path class="st11" d="M846.51,501.15h22.6c15.81,0,22.6,7.35,22.6,22.33v5.96c0,9.98-3.19,16.36-9.98,19.14v0.28
			c7.63,2.36,10.12,9.57,10.12,20.52v17.06c0,4.71,0.14,8.18,1.66,11.79h-15.53c-0.83-2.5-1.39-4.02-1.39-11.93v-17.75
			c0-9.01-2.63-11.93-9.57-11.93h-5.27v41.6h-15.25V501.15z M867.31,542.75c5.69,0,9.15-2.5,9.15-10.26V525
			c0-6.93-2.36-9.98-7.77-9.98h-6.93v27.73H867.31z"/>
		<path class="st11" d="M901.29,575.2v-51.03c0-15.53,8.18-24.41,23.16-24.41s23.16,8.88,23.16,24.41v51.03
			c0,15.53-8.18,24.41-23.16,24.41S901.29,590.73,901.29,575.2z M932.35,576.17V523.2c0-6.93-3.05-9.57-7.9-9.57s-7.9,2.63-7.9,9.57
			v52.97c0,6.93,3.05,9.57,7.9,9.57S932.35,583.1,932.35,576.17z"/>
		<path class="st11" d="M957.86,501.15h23.3c15.25,0,22.74,8.46,22.74,23.99v49.09c0,15.53-7.49,23.99-22.74,23.99h-23.3V501.15z
			 M980.88,584.35c4.85,0,7.77-2.5,7.77-9.43v-50.48c0-6.93-2.91-9.43-7.77-9.43h-7.77v69.34H980.88z"/>
		<path class="st11" d="M1013.61,575.2v-74.05h15.25v75.16c0,6.93,2.91,9.43,7.77,9.43s7.77-2.5,7.77-9.43v-75.16h14.7v74.05
			c0,15.53-7.77,24.41-22.74,24.41S1013.61,590.73,1013.61,575.2z"/>
		<path class="st11" d="M1068.94,575.75v-52.14c0-14.98,7.77-23.85,22.46-23.85s22.46,8.88,22.46,23.85v10.26h-14.42v-11.23
			c0-6.38-3.05-9.01-7.63-9.01s-7.63,2.63-7.63,9.01v54.22c0,6.38,3.05,8.88,7.63,8.88s7.63-2.5,7.63-8.88v-14.84h14.42v13.73
			c0,14.98-7.77,23.85-22.46,23.85S1068.94,590.73,1068.94,575.75z"/>
		<path class="st11" d="M1134.95,515.01H1119v-13.87h47.15v13.87h-15.95v83.2h-15.25V515.01z"/>
		<path class="st11" d="M1173.5,501.15h15.25v97.07h-15.25V501.15z"/>
		<path class="st11" d="M1199.01,575.2v-51.03c0-15.53,8.18-24.41,23.16-24.41s23.16,8.88,23.16,24.41v51.03
			c0,15.53-8.18,24.41-23.16,24.41S1199.01,590.73,1199.01,575.2z M1230.08,576.17V523.2c0-6.93-3.05-9.57-7.9-9.57
			s-7.9,2.63-7.9,9.57v52.97c0,6.93,3.05,9.57,7.9,9.57S1230.08,583.1,1230.08,576.17z"/>
		<path class="st11" d="M1255.59,501.15h19.14l14.84,58.1h0.28v-58.1h13.59v97.07h-15.67l-18.3-70.86h-0.28v70.86h-13.59V501.15z"/>
		<path class="st11" d="M1312.17,575.2v-5.55h14.42v6.66c0,6.93,3.05,9.43,7.9,9.43s7.9-2.5,7.9-9.71c0-8.04-3.05-13.17-13.04-21.91
			c-12.76-11.23-16.92-19.14-16.92-30.23c0-15.25,7.9-24.13,22.74-24.13s22.19,8.88,22.19,24.41v4.02h-14.42v-4.99
			c0-6.93-2.77-9.57-7.63-9.57s-7.63,2.63-7.63,9.29c0,7.07,3.19,12.2,13.17,20.94c12.76,11.23,16.78,19,16.78,31.06
			c0,15.81-8.04,24.68-23.02,24.68S1312.17,590.73,1312.17,575.2z"/>
	</g>
	<g>
		<g>
			<path class="st13" d="M791.78,280.6h28.33v75.97l36.05-75.97h28.33l-33.74,66.19l34.25,114.09h-29.62l-23.95-80.35l-11.33,22.92
				v57.43h-28.33V280.6z"/>
			<path class="st13" d="M898.4,280.6h28.33v154.52h46.61v25.75H898.4V280.6z"/>
			<path class="st13" d="M986.99,280.6h77.26v25.75h-48.93V354h38.89v25.75h-38.89v55.37h48.93v25.75h-77.26V280.6z"/>
			<path class="st13" d="M1076.09,418.12v-10.3h26.78v12.36c0,12.88,5.67,17.51,14.68,17.51c9.01,0,14.68-4.64,14.68-18.03
				c0-14.94-5.67-24.47-24.21-40.69c-23.69-20.86-31.42-35.54-31.42-56.14c0-28.33,14.68-44.81,42.24-44.81s41.21,16.48,41.21,45.33
				v7.47h-26.78v-9.27c0-12.88-5.15-17.77-14.16-17.77s-14.17,4.89-14.17,17.25c0,13.13,5.92,22.66,24.47,38.89
				c23.69,20.86,31.16,35.28,31.16,57.69c0,29.36-14.94,45.84-42.75,45.84C1090,463.45,1076.09,446.97,1076.09,418.12z"/>
			<path class="st13" d="M1175.76,418.12V280.6h28.33v139.58c0,12.88,5.41,17.51,14.42,17.51s14.42-4.64,14.42-17.51V280.6h27.3
				v137.53c0,28.84-14.42,45.33-42.24,45.33C1190.18,463.45,1175.76,446.97,1175.76,418.12z"/>
			<path class="st13" d="M1280.32,280.6h35.54l27.56,107.91h0.51V280.6h25.24v180.28h-29.1l-34-131.6h-0.51v131.6h-25.24V280.6z"/>
		</g>
	</g>
</g>
<g id="Layer_4">
</g>
<g id="Layer_2">
</g>
</svg>
