<?xml version="1.0" encoding="UTF-8" standalone="no"?>
<!-- Created with Inkscape (http://www.inkscape.org/) -->

<svg
   xmlns:dc="http://purl.org/dc/elements/1.1/"
   xmlns:cc="http://creativecommons.org/ns#"
   xmlns:rdf="http://www.w3.org/1999/02/22-rdf-syntax-ns#"
   xmlns:svg="http://www.w3.org/2000/svg"
   xmlns="http://www.w3.org/2000/svg"
   xmlns:xlink="http://www.w3.org/1999/xlink"
   xmlns:sodipodi="http://sodipodi.sourceforge.net/DTD/sodipodi-0.dtd"
   xmlns:inkscape="http://www.inkscape.org/namespaces/inkscape"
   version="1.0"
   width="180"
   height="1200"
   viewBox="0 0 540 1600"
   id="clef_1_"
   xml:space="preserve"
   inkscape:version="0.48.4 r9939"
   sodipodi:docname="part_keys_40r.svg"><metadata
     id="metadata7"><rdf:RDF><cc:Work
         rdf:about=""><dc:format>image/svg+xml</dc:format><dc:type
           rdf:resource="http://purl.org/dc/dcmitype/StillImage" /><dc:title></dc:title></cc:Work></rdf:RDF></metadata><sodipodi:namedview
     pagecolor="#ffffff"
     bordercolor="#666666"
     borderopacity="1"
     objecttolerance="10"
     gridtolerance="10"
     guidetolerance="10"
     inkscape:pageopacity="0"
     inkscape:pageshadow="2"
     inkscape:window-width="1280"
     inkscape:window-height="975"
     id="namedview5"
     showgrid="false"
     inkscape:zoom="0.5"
     inkscape:cx="298.04571"
     inkscape:cy="697.04581"
     inkscape:window-x="0"
     inkscape:window-y="25"
     inkscape:window-maximized="1"
     inkscape:current-layer="clef_1_" /><defs
     id="defs5"><linearGradient
       gradientTransform="matrix(1.0620789,0,0,1.0620789,765.03946,-40.692919)"
       gradientUnits="userSpaceOnUse"
       xlink:href="#linearGradient3013-7"
       id="linearGradient3770"
       y2="231.08823"
       x2="-190.87596"
       y1="770.93732"
       x1="-543.25403" /><linearGradient
       gradientTransform="translate(-368.00764,35.356037)"
       gradientUnits="userSpaceOnUse"
       xlink:href="#linearGradient3013-7"
       id="linearGradient3793"
       y2="490.82504"
       x2="881.5011"
       y1="490.82504"
       x1="598.60864" /><linearGradient
       id="linearGradient3013-7"><stop
         offset="0"
         style="stop-color:#000000;stop-opacity:0.8263889"
         id="stop3015-9" /><stop
         offset="1"
         style="stop-color:#000000;stop-opacity:1"
         id="stop3017-0" /></linearGradient><linearGradient
       gradientUnits="userSpaceOnUse"
       xlink:href="#linearGradient3013-7"
       id="linearGradient3776"
       y2="490.82504"
       x2="881.5011"
       y1="490.82504"
       x1="598.60864" /></defs><path
     d="M 209.9453,623.98366 C 152.74983,620.65939 94.353986,584.78475 59.429086,543.60992 18.937556,495.87047 2.2436181,430.9642 6.5197971,377.6621 19.081826,221.04616 189.39799,128.47901 252.44471,60.068044 c 42.2008,-45.79172 51.04771,-68.1145243 60.47379,-91.665687 18.24894,-45.587231 21.18858,-98.999467 -14.99068,-102.987177 -34.54217,-3.80715 -62.96056,50.514833 -75.65288,87.639926 -11.41389,33.39185 -19.00042,66.893998 -12.13327,117.218338 3.08595,22.60938 88.0286,653.723846 89.46129,663.506646 14.30542,97.76315 -41.60365,138.21664 -98.67688,145.41239 C 77.680046,894.73029 38.134346,769.48431 93.372076,721.91738 135.8975,685.29314 197.76601,716.7353 194.42363,776.94664 c -2.95972,53.33014 -55.25186,54.90116 -68.61341,53.68288 20.51129,36.78634 175.1434,56.00515 151.39986,-110.19497 -3.33636,-23.35478 -81.82867,-616.43636 -83.75235,-629.707856 -14.39955,-99.3542333 -16.59372,-177.996755 35.17134,-269.770624 19.11064,-33.87879 49.31243,-55.75074 64.13885,-52.88732 3.25825,0.62938 6.50447,1.82563 9.08138,4.48472 39.70802,40.91433 51.88934,131.643967 47.53903,183.763801 -4.45457,53.3662933 -6.93729,108.611923 -60.00091,173.037279 -20.53528,24.93174 -83.19926,79.855 -119.1281,111.40939 -50.48267,44.33491 -87.098804,83.05703 -106.910704,129.77052 -22.26463,52.50054 -26.03387,118.58907 24.25445,177.22933 28.927364,33.13143 76.923324,56.64049 117.316604,57.14148 112.31508,1.39465 145.11392,-53.96939 146.16192,-116.66742 1.72528,-103.23971 -122.91134,-142.27247 -174.15352,-71.28656 -29.71088,41.16093 -16.65184,84.48378 3.30237,105.09535 6.84911,7.07352 14.49977,12.46189 21.73762,15.46559 2.623,1.08807 8.79278,3.95757 7.04148,8.1576 -1.45681,3.49469 -4.28625,3.69113 -6.86315,3.38252 -32.31387,-3.87555 -68.09439,-34.76273 -76.89325,-87.89042 -12.82057,-77.43431 55.51228,-169.2902 153.05305,-154.26735 63.85828,9.83484 123.14785,64.78193 117.94787,167.10001 -4.45849,87.69195 -77.15773,156.33327 -186.30876,149.98907 z"
     id="clef"
     inkscape:connector-curvature="0"
     sodipodi:nodetypes="sccscscccscccsccccssccccsccccccscs" /><g
     transform="matrix(1.1394693,0,0,1.1508645,-170.04179,773.17995)"
     id="layer1"><path
       inkscape:connector-curvature="0"
       style="fill:url(#linearGradient3770);fill-opacity:1;fill-rule:evenodd;stroke:#000000;stroke-width:1.06207883;stroke-opacity:1"
       id="path3"
       d="m 192.76839,461.95999 c 12.385,15.63309 34.32943,26.01114 59.31069,26.01114 38.66022,0 69.97923,-24.82282 69.97923,-55.45524 0,-30.63242 -31.31901,-55.45523 -69.97923,-55.45523 -21.57472,4.41001 -30.36834,9.55942 -35.20086,-3.08965 19.09244,-57.69986 49.83049,-70.85067 102.53937,-70.85067 70.00563,0 102.98829,63.61508 102.98829,151.84172 -19.35651,202.46443 -218.7313,304.55487 -261.88075,335.82106 6.04726,13.91663 5.73037,13.41489 5.73037,12.75471 201.56658,-91.55395 351.2165,-217.12046 351.2165,-340.65359 0,-98.15577 -62.2155,-186.48804 -199.37478,-183.53043 -82.39064,0 -180.88969,91.55395 -125.32883,182.60618 z m 348.47014,-95.46224 c 0,18.96042 15.36903,34.32943 34.32943,34.32943 18.96041,0 34.32944,-15.36901 34.32944,-34.32943 0,-18.96041 -15.36903,-34.32942 -34.32944,-34.32942 -18.9604,0 -34.32943,15.36901 -34.32943,34.32942 z m 0,145.23991 c 0,18.96041 15.36903,34.32944 34.32943,34.32944 18.96041,0 34.32944,-15.36903 34.32944,-34.32944 0,-18.96041 -15.36903,-34.32943 -34.32944,-34.32943 -18.9604,0 -34.32943,15.36902 -34.32943,34.32943 z" /></g><path
     style="fill:#c8b7b7;stroke:#a4a4a4;stroke-width:3px;stroke-linecap:butt;stroke-linejoin:miter;stroke-opacity:1"
     d="m 0.375,-912.62501 568.125,0"
     id="path4117"
     inkscape:connector-curvature="0"
     sodipodi:nodetypes="cc" /><path
     style="fill:#c8b7b7;stroke:#a4a4a4;stroke-width:3px;stroke-linecap:butt;stroke-linejoin:miter;stroke-opacity:1"
     d="m -2.6516504,-730.47295 577.4465204,0"
     id="path4119"
     inkscape:connector-curvature="0"
     sodipodi:nodetypes="cc" /><path
     style="fill:#c8b7b7;stroke:#a4a4a4;stroke-width:3px;stroke-linecap:butt;stroke-linejoin:miter;stroke-opacity:1"
     d="m -5.303301,-551.7517 581.158821,0"
     id="path4121"
     inkscape:connector-curvature="0"
     sodipodi:nodetypes="cc" /><path
     style="fill:none;stroke:#000000;stroke-width:3px;stroke-linecap:butt;stroke-linejoin:miter;stroke-opacity:1"
     d="m -2.049081,-9.1788915 577.446561,0"
     id="path4119-8"
     inkscape:connector-curvature="0"
     sodipodi:nodetypes="cc" /><path
     style="fill:none;stroke:#000000;stroke-width:3px;stroke-linecap:butt;stroke-linejoin:miter;stroke-opacity:1"
     d="m -4.700731,169.54235 581.158811,0"
     id="path4121-9"
     inkscape:connector-curvature="0"
     sodipodi:nodetypes="cc" /><path
     style="fill:none;stroke:#000000;stroke-width:3px;stroke-linecap:butt;stroke-linejoin:miter;stroke-opacity:1"
     d="m -3.809427,351.76508 577.446517,0"
     id="path4119-3"
     inkscape:connector-curvature="0"
     sodipodi:nodetypes="cc" /><path
     style="fill:none;stroke:#000000;stroke-width:3px;stroke-linecap:butt;stroke-linejoin:miter;stroke-opacity:1"
     d="m -6.461077,530.48632 581.158817,0"
     id="path4121-5"
     inkscape:connector-curvature="0"
     sodipodi:nodetypes="cc" /><path
     style="fill:none;stroke:#000000;stroke-width:3px;stroke-linecap:butt;stroke-linejoin:miter;stroke-opacity:1"
     d="m -8.7110811,712.73362 577.4465311,0"
     id="path4119-4-6"
     inkscape:connector-curvature="0"
     sodipodi:nodetypes="cc" /><path
     style="fill:none;stroke:#000000;stroke-width:3px;stroke-linecap:butt;stroke-linejoin:miter;stroke-opacity:1"
     d="m -3.206857,1073.0591 577.446557,0"
     id="path4119-8-4"
     inkscape:connector-curvature="0"
     sodipodi:nodetypes="cc" /><path
     style="fill:none;stroke:#000000;stroke-width:3px;stroke-linecap:butt;stroke-linejoin:miter;stroke-opacity:1"
     d="m -5.858507,1251.7804 581.158797,0"
     id="path4121-9-2"
     inkscape:connector-curvature="0"
     sodipodi:nodetypes="cc" /><path
     style="fill:none;stroke:#000000;stroke-width:3px;stroke-linecap:butt;stroke-linejoin:miter;stroke-opacity:1"
     d="m -12.917594,1427.7479 577.446514,0"
     id="path4119-5"
     inkscape:connector-curvature="0"
     sodipodi:nodetypes="cc" /><path
     style="fill:none;stroke:#000000;stroke-width:3px;stroke-linecap:butt;stroke-linejoin:miter;stroke-opacity:1"
     d="m -9.5692441,1612.4691 581.1588141,0"
     id="path4121-1"
     inkscape:connector-curvature="0"
     sodipodi:nodetypes="cc" /><path
     style="fill:none;stroke:#000000;stroke-width:3px;stroke-linecap:butt;stroke-linejoin:miter;stroke-opacity:1"
     d="m -11.819254,1794.7164 577.446534,0"
     id="path4119-4-7"
     inkscape:connector-curvature="0"
     sodipodi:nodetypes="cc" /></svg>