<?xml version="1.0" encoding="UTF-8" standalone="no"?>
<!-- Created with Inkscape (http://www.inkscape.org/) -->

<svg
   xmlns:dc="http://purl.org/dc/elements/1.1/"
   xmlns:cc="http://creativecommons.org/ns#"
   xmlns:rdf="http://www.w3.org/1999/02/22-rdf-syntax-ns#"
   xmlns:svg="http://www.w3.org/2000/svg"
   xmlns="http://www.w3.org/2000/svg"
   xmlns:sodipodi="http://sodipodi.sourceforge.net/DTD/sodipodi-0.dtd"
   xmlns:inkscape="http://www.inkscape.org/namespaces/inkscape"
   version="1.0"
   width="300"
   height="1200"
   viewBox="0 0 900 1600"
   id="clef_1_"
   xml:space="preserve"
   inkscape:version="0.48.4 r9939"
   sodipodi:docname="violin_key.svg"><metadata
     id="metadata7"><rdf:RDF><cc:Work
         rdf:about=""><dc:format>image/svg+xml</dc:format><dc:type
           rdf:resource="http://purl.org/dc/dcmitype/StillImage" /></cc:Work></rdf:RDF></metadata><sodipodi:namedview
     pagecolor="#ffffff"
     bordercolor="#666666"
     borderopacity="1"
     objecttolerance="10"
     gridtolerance="10"
     guidetolerance="10"
     inkscape:pageopacity="0"
     inkscape:pageshadow="2"
     inkscape:window-width="698"
     inkscape:window-height="917"
     id="namedview5"
     showgrid="false"
     inkscape:zoom="0.35355339"
     inkscape:cx="57.329505"
     inkscape:cy="591.98781"
     inkscape:window-x="0"
     inkscape:window-y="25"
     inkscape:window-maximized="0"
     inkscape:current-layer="clef_1_" /><defs
     id="defs5" /><path
     d="M 472.39966,963.95575 C 342.04265,956.37905 208.94997,874.61535 129.35103,780.77185 37.064876,671.96665 -0.983142,524.03575 8.7629284,402.55235 37.393706,45.60165 425.56924,-165.37275 569.26201,-321.29142 c 96.18186,-104.366 116.34535,-155.24291 137.82869,-208.91931 41.59204,-103.9001 48.29189,-225.6346 -34.16602,-234.723 -78.72663,-8.6774 -143.49638,115.1305 -172.42402,199.7441 -26.01386,76.1051 -43.30466,152.46151 -27.65343,267.15811 7.03324,51.5299 200.63006,1489.93282 203.89549,1512.22912 32.6041,222.8167 -94.82087,315.0161 -224.89931,331.4163 -280.89577,35.4129 -371.026304,-250.0408 -245.13128,-358.4532 96.92171,-83.4718 237.92906,-11.8104 230.31125,125.42 -6.74552,121.5472 -125.92699,125.1278 -156.38001,122.351 46.74821,83.8417 399.17754,127.6442 345.06269,-251.1506 -7.60413,-53.2289 -186.49964,-1404.94932 -190.88401,-1435.19683 -32.81874,-226.443 -37.81965,-405.681 80.1607,-614.8469 43.55585,-77.2149 112.39028,-127.0642 146.1818,-120.5379 7.426,1.4341 14.82462,4.1606 20.69782,10.2211 90.50047,93.2498 118.2635,300.0362 108.34846,418.8249 -10.15254,121.62941 -15.8111,247.54271 -136.75088,394.37758 -46.80301,56.8231 -189.62349,182.0011 -271.51051,253.9183 -115.05744,101.0457 -198.51095,189.2992 -243.66528,295.766 -50.744366,119.6565 -59.334964,270.2821 55.27945,403.932 65.92979,75.5114 175.31954,129.0919 267.38191,130.2337 255.9826,3.1786 330.73589,-123.0041 333.12445,-265.9022 3.93222,-235.2986 -280.13308,-324.2599 -396.92142,-162.4725 -67.7155,93.8116 -37.9521,192.551 7.52649,239.5276 15.61013,16.1216 33.0471,28.4024 49.54323,35.2484 5.97826,2.4799 20.04017,9.0199 16.04859,18.5924 -3.32023,7.9649 -9.76891,8.4125 -15.64212,7.7092 -73.64808,-8.8327 -155.19714,-79.2291 -175.25101,-200.315 -29.21992,-176.4842 126.5207,-385.8373 348.8305,-351.5982 145.54242,22.4151 280.672,147.6478 268.8205,380.8456 -10.1616,199.8627 -175.85384,356.3067 -424.62507,341.8474 z"
     id="clef"
     inkscape:connector-curvature="0" /></svg>